<svg width="68" height="68" viewBox="0 0 68 68" fill="none" xmlns="http://www.w3.org/2000/svg">
<rect width="68" height="68" rx="34" fill="#0D2E89"/>
<g clip-path="url(#clip0_163_7793)">
<path d="M34 40.75C31.45 40.75 30.55 40.15 29.725 39.55C29.5 39.4 29.35 39.25 29.125 39.175C26.875 37.825 25.225 35.5 24.475 32.2C23.425 31.825 22 30.7 22 28C22 25.9 22.975 25.225 23.05 25.15C23.425 24.925 23.875 25 24.1 25.375C24.325 25.75 24.25 26.2 23.875 26.425C23.5 26.65 23.425 26.8 23.425 28.075C23.425 30.625 25 30.925 25.15 30.925C25.45 31 25.75 31.225 25.825 31.525C26.275 33.625 27.25 36.475 29.8 37.975C30.1 38.125 30.325 38.275 30.55 38.425C31.3 38.95 31.9 39.325 33.925 39.325C35.95 39.325 36.55 38.95 37.3 38.425C37.525 38.275 37.75 38.125 38.05 37.975C40.6 36.475 41.65 33.7 42.025 31.525C42.1 31.225 42.4 30.925 42.7 30.925C42.85 30.925 44.425 30.625 44.425 28.075C44.425 26.8 43.975 26.425 43.975 26.425C43.6 26.2 43.525 25.75 43.825 25.375C44.05 25 44.575 24.925 44.875 25.225C44.95 25.3 45.925 26.05 45.925 28.075C45.925 30.775 44.5 31.9 43.45 32.275C42.7 35.5 41.125 37.9 38.8 39.25C38.575 39.4 38.35 39.55 38.2 39.625C37.45 40.15 36.55 40.75 34 40.75Z" fill="#FDFDFD"/>
<path d="M44.5 26.5C42.25 26.5 41.65 24.475 41.125 22.825C40.6 20.95 40.15 19.75 38.5 19.75C37.375 19.75 36.625 19.975 35.95 20.125C35.275 20.35 34.75 20.5 34 20.5C33.25 20.5 32.725 20.35 32.05 20.125C31.375 19.975 30.625 19.75 29.5 19.75C27.85 19.75 27.4 20.95 26.875 22.825C26.35 24.475 25.75 26.5 23.5 26.5C23.05 26.5 22.75 26.2 22.75 25.75C22.75 25.3 23.05 25 23.5 25C24.55 25 24.85 24.175 25.45 22.375C25.975 20.65 26.725 18.25 29.5 18.25C30.85 18.25 31.75 18.475 32.5 18.7C33.025 18.85 33.475 19 34 19C34.525 19 34.975 18.85 35.5 18.7C36.25 18.475 37.15 18.25 38.5 18.25C41.35 18.25 42.025 20.65 42.55 22.375C43.075 24.175 43.45 25 44.5 25C44.95 25 45.25 25.3 45.25 25.75C45.25 26.2 44.95 26.5 44.5 26.5Z" fill="#FDFDFD"/>
<path d="M56.5 57.25C56.05 57.25 55.75 56.95 55.75 56.5C55.75 52.375 55.75 49.075 49.9 47.65C45.025 46.525 39.25 44.275 39.25 40.45V37.375C39.25 36.925 39.55 36.625 40 36.625C40.45 36.625 40.75 36.925 40.75 37.375V40.45C40.75 42.625 44.2 44.725 50.2 46.225C57.25 47.875 57.25 52.45 57.25 56.425C57.25 56.875 56.95 57.25 56.5 57.25Z" fill="#FDFDFD"/>
<path d="M11.5 56.5H10.75C10.75 52.45 10.75 47.875 17.8 46.225C23.8 44.8 27.25 42.7 27.25 40.45V37.375C27.25 36.925 27.55 36.625 28 36.625C28.45 36.625 28.75 36.925 28.75 37.375V40.45C28.75 44.275 22.975 46.525 18.1 47.65C12.25 49.075 12.25 52.375 12.25 56.425L11.5 56.5Z" fill="#FDFDFD"/>
<path d="M44.725 26.725C44.65 26.725 44.575 26.725 44.425 26.65C44.05 26.5 43.825 26.05 43.975 25.675C44.5 24.4 44.5 22.75 44.5 21.325C44.5 15.25 41.05 12.25 34 12.25C30.175 12.25 28.675 13.675 27.85 14.95C27.775 15.1 27.625 15.175 27.475 15.25C25.6 16 23.425 18.25 23.425 22.075C23.425 23.65 23.425 24.475 23.95 25.75C24.1 26.125 23.875 26.575 23.5 26.725C23.125 26.875 22.675 26.65 22.525 26.275C22 24.7 22 23.575 22 22C22 17.575 24.55 14.875 26.725 13.9C28.3 11.725 30.625 10.75 34 10.75C41.95 10.75 46 14.35 46 21.4C46 22.825 46 24.7 45.4 26.275C45.325 26.5 45.025 26.725 44.725 26.725Z" fill="#FDFDFD"/>
<path d="M37.7501 52C37.5251 52 37.3001 51.925 37.1501 51.7L33.4001 47.2C33.2501 46.975 33.1751 46.675 33.2501 46.45C33.3251 46.225 33.5501 46 33.8501 46C36.4001 45.625 38.6501 44.2 40.1501 42.1C40.3751 41.725 40.8251 41.65 41.2001 41.95C41.5751 42.175 41.6501 42.625 41.3501 43C39.8501 45.1 37.7501 46.6 35.2751 47.275L38.2001 50.8C38.5001 51.1 38.4251 51.625 38.1251 51.85C38.1251 51.925 37.9001 52 37.7501 52Z" fill="#FDFDFD"/>
<path d="M30.2502 51.9999C30.1002 51.9999 29.8752 51.9249 29.8002 51.8499C29.5002 51.5499 29.4252 51.0999 29.7252 50.7999L32.6502 47.2749C30.2502 46.5999 28.0752 45.0999 26.5752 42.9999C26.3502 42.6249 26.4252 42.1749 26.7252 41.9499C27.1002 41.7249 27.5502 41.7999 27.7752 42.0999C29.2752 44.1999 31.5252 45.6249 34.0752 45.9999C34.3752 46.0749 34.6002 46.2249 34.6752 46.4499C34.7502 46.6749 34.7502 46.9749 34.5252 47.1999L30.7752 51.6999C30.7002 51.9249 30.4752 51.9999 30.2502 51.9999Z" fill="#FDFDFD"/>
<path d="M37.7498 52C37.5248 52 37.2248 51.85 37.1498 51.625C36.9248 51.25 37.0748 50.8 37.3748 50.575C39.8498 49 42.0248 46.975 43.5998 44.5C43.8248 44.125 44.2748 44.05 44.6498 44.275C45.0248 44.5 45.0998 44.95 44.8748 45.325C43.1498 47.95 40.8248 50.2 38.1998 51.85C38.0498 52 37.8998 52 37.7498 52Z" fill="#FDFDFD"/>
<path d="M30.2498 52C30.0998 52 29.9498 52 29.8748 51.85C27.2498 50.2 24.9248 47.95 23.1998 45.325C22.9748 44.95 23.0498 44.5 23.4248 44.275C23.7998 44.05 24.2498 44.125 24.4748 44.5C26.0498 46.9 28.2248 49 30.6998 50.575C31.0748 50.8 31.1498 51.25 30.9248 51.625C30.7748 51.85 30.4748 52 30.2498 52Z" fill="#FDFDFD"/>
<path d="M36.25 57.25C35.875 57.25 35.575 57.025 35.5 56.65L34.75 52.9C34.75 52.75 34.75 52.6 34.75 52.45L35.875 49.6C36.025 49.225 36.475 49 36.85 49.15C37.225 49.3 37.45 49.75 37.3 50.125L36.25 52.825L36.925 56.35C37 56.725 36.775 57.175 36.325 57.25C36.325 57.25 36.325 57.25 36.25 57.25Z" fill="#FDFDFD"/>
<path d="M31.7501 57.25C31.6751 57.25 31.6751 57.25 31.6001 57.25C31.2251 57.175 30.9251 56.8 31.0001 56.35L31.6751 52.825L30.6251 50.125C30.4751 49.75 30.7001 49.3 31.0751 49.15C31.4501 49 31.9001 49.225 32.0501 49.6L33.1751 52.45C33.2501 52.6 33.2501 52.75 33.1751 52.9L32.4251 56.65C32.4251 57.025 32.1251 57.25 31.7501 57.25Z" fill="#FDFDFD"/>
<path d="M35.5 53.5H32.5C32.05 53.5 31.75 53.2 31.75 52.75C31.75 52.3 32.05 52 32.5 52H35.5C35.95 52 36.25 52.3 36.25 52.75C36.25 53.2 35.95 53.5 35.5 53.5Z" fill="#FDFDFD"/>
</g>
<defs>
<clipPath id="clip0_163_7793">
<rect width="48" height="48" fill="white" transform="translate(10 10)"/>
</clipPath>
</defs>
</svg>
